<?xml version="1.0" encoding="UTF-8"?>
<!DOCTYPE svg PUBLIC "-//W3C//DTD SVG 1.1//EN" "http://www.w3.org/Graphics/SVG/1.1/DTD/svg11.dtd">
<svg xmlns="http://www.w3.org/2000/svg" version="1.1" width="592px" height="592px" style="shape-rendering:geometricPrecision; text-rendering:geometricPrecision; image-rendering:optimizeQuality; fill-rule:evenodd; clip-rule:evenodd" xmlns:xlink="http://www.w3.org/1999/xlink">
<g><path style="opacity:1" fill="#fed101" d="M 280.5,112.5 C 321.937,108.572 354.437,123.572 378,157.5C 398.474,194.722 397.141,231.055 374,266.5C 347.016,299.718 312.516,311.885 270.5,303C 229.819,289.993 205.986,262.493 199,220.5C 196.249,171.817 217.083,137.65 261.5,118C 267.911,115.985 274.244,114.152 280.5,112.5 Z"/></g>
<g><path style="opacity:1" fill="#0052fe" d="M 260.5,326.5 C 283.836,326.333 307.169,326.5 330.5,327C 383.576,334.412 421.743,362.245 445,410.5C 453.69,430.28 457.356,450.947 456,472.5C 454.833,475 453,476.833 450.5,478C 347.167,478.667 243.833,478.667 140.5,478C 138,476.833 136.167,475 135,472.5C 134.255,417.819 156.755,375.652 202.5,346C 220.626,335.569 239.959,329.069 260.5,326.5 Z"/></g>
</svg>
