<?xml version="1.0" standalone="no"?>
<!DOCTYPE svg PUBLIC "-//W3C//DTD SVG 20010904//EN"
 "http://www.w3.org/TR/2001/REC-SVG-20010904/DTD/svg10.dtd">
<svg version="1.0" xmlns="http://www.w3.org/2000/svg"
 width="1000.000000pt" height="1000.000000pt" viewBox="0 0 1000.000000 1000.000000"
 preserveAspectRatio="xMidYMid meet">
<metadata>
Created by potrace 1.14, written by Peter Selinger 2001-2017
</metadata>
<g transform="translate(0.000000,1000.000000) scale(0.100000,-0.100000)"
fill="#000000" stroke="none">
<path d="M3985 8350 c-3 -5 -3 -10 2 -11 4 0 -2 -4 -14 -9 -13 -5 -23 -16 -23
-24 0 -10 -6 -13 -15 -10 -11 5 -13 2 -8 -11 5 -15 2 -17 -14 -13 -17 5 -21 1
-18 -18 2 -20 0 -22 -17 -13 -18 10 -18 9 -8 -11 11 -20 10 -21 -10 -10 -13 7
-20 8 -16 2 3 -5 -1 -13 -10 -16 -13 -5 -14 -9 -4 -21 11 -13 10 -14 -1 -10
-8 3 -23 -2 -34 -11 -11 -8 -15 -13 -9 -10 6 3 11 -1 11 -8 0 -8 -7 -12 -15
-8 -10 3 -13 1 -8 -6 4 -8 2 -10 -7 -6 -10 3 -17 -4 -21 -20 -3 -13 -15 -28
-27 -31 -13 -4 -18 -12 -15 -21 3 -8 2 -13 -3 -10 -5 3 -12 -1 -15 -10 -5 -14
-9 -14 -23 -3 -15 13 -15 12 -4 -9 12 -22 11 -23 -7 -13 -18 9 -20 8 -18 -14
2 -13 0 -22 -5 -20 -4 3 -14 -2 -22 -10 -9 -8 -20 -15 -26 -15 -6 0 -8 -7 -5
-15 4 -10 2 -13 -8 -10 -8 3 -21 -2 -29 -12 -12 -16 -12 -17 2 -6 13 10 16 10
16 -1 0 -8 -9 -13 -23 -11 -15 1 -21 -2 -17 -11 3 -8 -1 -14 -10 -14 -8 0 -21
-8 -28 -17 -13 -16 -12 -17 4 -4 10 8 17 9 17 3 0 -6 -9 -14 -21 -17 -13 -4
-18 -12 -15 -21 3 -8 2 -13 -3 -10 -5 3 -12 -1 -15 -10 -5 -14 -9 -14 -23 -3
-15 13 -15 12 -4 -9 12 -22 11 -23 -7 -13 -17 9 -19 8 -15 -9 3 -12 0 -20 -6
-20 -7 0 -9 5 -5 12 4 7 3 8 -5 4 -6 -4 -8 -12 -5 -18 5 -7 2 -9 -8 -5 -12 4
-14 1 -11 -13 4 -14 -2 -21 -22 -26 -17 -4 -24 -11 -21 -21 4 -9 2 -11 -6 -7
-7 5 -9 2 -5 -8 4 -12 0 -15 -18 -14 -19 3 -22 -1 -20 -21 2 -18 -1 -21 -10
-13 -10 8 -15 8 -21 -1 -5 -8 -3 -10 7 -5 8 4 6 1 -5 -8 -10 -8 -15 -20 -10
-27 4 -7 3 -10 -3 -6 -6 4 -14 0 -17 -9 -5 -14 -9 -14 -23 -3 -15 13 -15 12
-4 -9 12 -22 11 -23 -7 -13 -18 9 -20 8 -18 -14 2 -13 0 -22 -5 -20 -4 3 -14
-2 -22 -10 -9 -8 -20 -15 -26 -15 -6 0 -8 -7 -5 -15 5 -11 2 -13 -10 -9 -14 5
-21 -8 -18 -37 1 -3 -6 -6 -13 -6 -12 0 -12 3 -2 16 11 14 10 14 -6 2 -10 -8
-15 -21 -12 -29 3 -10 0 -12 -10 -8 -9 3 -15 0 -15 -10 0 -10 -6 -14 -14 -11
-9 4 -12 -2 -11 -17 2 -19 -1 -23 -21 -20 -21 2 -22 0 -13 -18 10 -18 9 -19
-13 -7 -21 11 -22 11 -9 -4 11 -14 11 -18 -3 -23 -9 -3 -13 -11 -10 -16 4 -6
-3 -5 -16 2 -20 11 -21 10 -9 -12 12 -22 11 -22 -6 -8 -17 14 -18 13 -12 -4 6
-14 4 -17 -8 -12 -9 3 -15 0 -15 -10 0 -10 -6 -14 -14 -11 -9 4 -12 -2 -11
-17 2 -19 -1 -23 -21 -20 -21 2 -22 0 -13 -18 10 -18 9 -19 -13 -7 -20 11 -21
10 -11 -3 13 -15 8 -28 -11 -28 -6 0 -4 5 4 10 8 5 10 10 4 10 -19 0 -24 -13
-11 -28 10 -13 9 -14 -10 -4 -16 9 -24 9 -29 0 -4 -6 -3 -8 3 -5 6 4 13 1 16
-6 3 -8 -3 -14 -16 -14 -11 -1 -27 -10 -36 -19 -15 -17 -15 -17 2 -5 10 8 17
9 17 3 0 -6 -9 -14 -21 -17 -13 -4 -18 -12 -15 -21 3 -8 2 -13 -3 -10 -5 3
-12 -1 -15 -10 -5 -14 -9 -14 -23 -3 -15 13 -15 12 -4 -9 12 -22 11 -23 -7
-13 -14 8 -19 7 -20 -5 -1 -7 -3 -20 -4 -28 -1 -7 -9 -11 -19 -9 -9 3 -20 -1
-24 -8 -5 -7 -4 -10 2 -6 5 3 10 0 10 -7 0 -8 -7 -12 -15 -8 -10 3 -13 1 -8
-6 4 -8 2 -10 -7 -6 -8 3 -18 0 -23 -7 -4 -7 -3 -10 3 -6 5 3 10 0 10 -7 0 -8
-7 -12 -15 -8 -10 3 -13 1 -8 -6 4 -8 2 -10 -7 -6 -10 3 -17 -4 -21 -20 -3
-13 -15 -28 -27 -31 -13 -4 -18 -12 -15 -21 3 -8 2 -13 -3 -10 -5 3 -12 -1
-15 -10 -5 -14 -9 -14 -23 -3 -15 13 -15 12 -4 -9 12 -22 11 -23 -7 -13 -18 9
-20 8 -18 -14 2 -13 0 -22 -5 -20 -4 3 -14 -2 -22 -10 -9 -8 -20 -15 -26 -15
-6 0 -8 -7 -5 -15 4 -10 2 -13 -8 -10 -8 3 -21 -2 -29 -12 -12 -16 -12 -17 2
-6 13 10 16 10 16 -1 0 -8 -9 -13 -23 -11 -15 1 -21 -2 -17 -11 3 -8 -1 -14
-10 -14 -8 0 -21 -8 -28 -17 -13 -16 -12 -17 4 -4 10 8 17 9 17 3 0 -6 -9 -14
-21 -17 -13 -4 -18 -12 -15 -21 3 -8 2 -13 -3 -10 -5 3 -12 -1 -15 -10 -5 -14
-9 -14 -23 -3 -15 13 -15 12 -4 -9 12 -22 11 -23 -7 -13 -17 9 -19 8 -15 -9 3
-12 0 -20 -6 -20 -7 0 -9 5 -5 12 4 7 3 8 -5 4 -6 -4 -8 -12 -5 -18 5 -7 2 -9
-8 -5 -12 4 -14 1 -11 -13 4 -14 -2 -21 -22 -26 -17 -4 -24 -11 -21 -21 4 -9
2 -11 -6 -7 -7 5 -9 2 -5 -8 4 -12 0 -15 -18 -14 -19 3 -22 -1 -20 -21 2 -18
-1 -21 -10 -13 -10 8 -15 8 -21 -1 -5 -8 -3 -10 7 -5 8 4 6 1 -5 -8 -10 -8
-15 -20 -10 -27 4 -7 3 -10 -3 -6 -6 4 -14 0 -17 -9 -5 -14 -9 -14 -23 -3 -15
13 -15 12 -4 -9 12 -22 11 -23 -7 -13 -18 9 -20 8 -18 -14 2 -13 0 -22 -5 -20
-4 3 -14 -2 -22 -10 -9 -8 -20 -15 -26 -15 -6 0 -8 -7 -5 -15 5 -11 2 -13 -12
-8 -12 4 -15 3 -10 -5 4 -7 2 -12 -4 -12 -7 0 -9 -7 -6 -16 3 -8 2 -13 -3 -10
-5 3 -12 -1 -15 -10 -5 -14 -9 -14 -23 -3 -15 13 -15 12 -4 -9 12 -22 11 -23
-7 -13 -18 10 -20 8 -17 -14 2 -22 0 -23 -14 -13 -9 7 -13 9 -9 4 4 -5 0 -15
-8 -24 -14 -13 -17 -13 -25 -1 -7 10 -8 6 -5 -13 3 -16 0 -28 -5 -28 -6 0 -8
-4 -5 -9 4 -5 0 -12 -6 -14 -9 -4 -9 -6 -1 -6 8 -1 9 -10 3 -30 -4 -15 -4 -34
0 -41 5 -7 4 -24 -1 -38 -5 -13 -6 -29 -2 -35 9 -15 11 -47 3 -47 -8 0 -6 -37
3 -46 3 -4 2 -15 -4 -25 -7 -14 -6 -19 2 -19 9 0 9 -3 0 -14 -8 -10 -9 -16 -1
-21 6 -4 7 -12 1 -24 -6 -10 -6 -23 -1 -31 5 -8 5 -21 0 -31 -5 -9 -6 -19 -3
-23 9 -9 11 -46 3 -46 -9 0 -6 -32 4 -48 4 -7 2 -12 -4 -12 -6 0 -8 -5 -4 -12
10 -16 13 -48 4 -48 -8 0 -6 -37 3 -46 3 -4 2 -15 -4 -25 -7 -14 -6 -19 2 -19
9 0 9 -3 0 -14 -8 -10 -9 -16 -1 -21 6 -4 7 -13 2 -23 -7 -15 -8 -37 -2 -44 5
-7 6 -48 0 -48 -8 0 -6 -37 3 -46 3 -4 2 -15 -4 -25 -7 -14 -6 -19 2 -19 9 0
9 -3 0 -14 -8 -10 -9 -16 -1 -21 6 -4 7 -12 1 -24 -6 -10 -6 -23 -1 -31 5 -8
5 -21 -1 -31 -6 -12 -5 -20 1 -24 8 -5 7 -11 -1 -21 -9 -11 -9 -14 0 -14 8 0
9 -5 1 -19 -7 -14 -7 -22 0 -26 8 -5 8 -11 0 -20 -8 -10 -8 -15 0 -20 8 -5 8
-10 0 -20 -8 -10 -8 -15 0 -20 8 -5 8 -11 -1 -21 -9 -11 -9 -14 0 -14 8 0 9
-5 1 -19 -7 -14 -7 -22 0 -26 8 -5 8 -11 0 -20 -8 -10 -8 -15 0 -20 8 -5 8
-11 1 -19 -6 -7 -8 -16 -4 -20 9 -9 11 -46 3 -46 -9 0 -6 -32 4 -48 4 -7 2
-12 -4 -12 -6 0 -8 -5 -4 -12 10 -16 13 -48 4 -48 -8 0 -6 -37 3 -46 3 -4 2
-15 -4 -25 -7 -14 -6 -19 2 -19 9 0 9 -3 0 -14 -8 -10 -9 -16 -1 -21 6 -4 7
-13 2 -23 -7 -15 -8 -37 -2 -44 5 -7 6 -48 0 -48 -8 0 -6 -37 3 -46 3 -4 2
-15 -4 -25 -7 -14 -6 -19 2 -19 9 0 9 -3 0 -14 -8 -10 -9 -16 -1 -21 7 -4 7
-12 0 -25 -7 -13 -7 -21 1 -25 6 -4 8 -13 5 -21 -3 -7 0 -16 6 -20 7 -5 8 -2
3 6 -5 9 -4 11 4 6 9 -6 9 -11 0 -22 -7 -9 -8 -14 -3 -13 20 3 35 -2 29 -10
-3 -5 0 -13 6 -17 8 -4 9 -3 5 4 -4 7 -2 12 3 12 6 0 11 -7 11 -16 0 -8 5 -12
11 -8 8 4 9 -1 4 -17 -7 -23 -6 -23 8 -4 14 18 15 18 12 -9 -3 -21 0 -25 9
-17 14 12 36 -4 36 -27 0 -7 5 -10 10 -7 6 3 10 1 10 -5 0 -6 4 -9 9 -6 4 3 7
-6 5 -20 -2 -22 0 -23 14 -12 9 7 13 8 9 2 -4 -7 0 -15 9 -18 9 -4 14 -13 10
-21 -4 -13 -2 -14 14 -5 11 6 19 7 18 3 -4 -15 13 -53 24 -53 6 0 30 -20 55
-45 26 -26 49 -43 56 -39 7 4 9 4 5 -1 -5 -5 1 -14 12 -22 11 -8 20 -21 20
-29 0 -8 5 -14 10 -14 6 0 10 -10 11 -22 0 -22 1 -22 9 -3 8 18 9 19 9 1 1
-13 6 -16 18 -12 15 6 14 4 -2 -16 -11 -13 -13 -17 -5 -10 17 14 34 16 25 2
-3 -5 0 -10 8 -10 22 0 39 -24 26 -37 -9 -9 -5 -11 13 -9 18 2 25 -2 24 -13
-1 -10 6 -15 17 -15 13 2 15 -1 7 -11 -8 -10 -8 -15 1 -21 8 -5 10 -3 5 7 -4
8 -1 5 8 -5 8 -10 12 -24 9 -30 -4 -6 2 -4 12 4 17 14 18 13 11 -5 -4 -11 -4
-16 0 -13 8 8 39 -21 47 -45 4 -9 18 -22 33 -27 17 -7 24 -15 20 -26 -3 -9 -2
-12 4 -9 10 6 44 -20 38 -29 -2 -2 1 -8 6 -13 5 -5 6 -3 2 5 -4 6 -2 12 3 12
6 0 11 -12 12 -27 0 -25 1 -26 9 -8 8 18 9 18 9 2 1 -11 5 -15 13 -11 8 5 9 0
5 -15 -4 -18 -3 -20 8 -11 12 10 13 8 10 -10 -4 -19 -2 -20 12 -8 15 11 16 11
9 -7 -4 -11 -4 -17 -1 -13 11 10 45 -25 46 -47 0 -20 0 -20 9 0 8 18 9 19 9 1
1 -13 6 -16 18 -12 15 6 14 4 -2 -16 -11 -13 -13 -17 -5 -11 17 15 34 17 25 3
-3 -5 -1 -10 5 -10 6 0 9 -3 7 -7 -3 -5 2 -14 10 -22 13 -12 15 -11 9 10 -5
20 -4 19 7 -4 7 -15 16 -24 20 -21 4 4 7 2 7 -5 0 -7 4 -10 9 -7 4 3 7 -6 5
-20 -2 -19 1 -23 10 -15 14 12 36 -4 36 -27 0 -7 5 -10 10 -7 6 3 10 1 10 -5
0 -6 4 -9 9 -6 4 3 7 -6 5 -20 -2 -22 0 -24 14 -12 9 7 14 9 10 4 -7 -8 14
-36 28 -36 12 0 74 -65 74 -78 0 -7 5 -10 10 -7 6 3 10 1 10 -5 0 -6 4 -9 9
-6 4 3 7 -6 5 -20 -2 -22 0 -24 14 -12 9 7 14 9 10 4 -4 -4 4 -18 17 -31 14
-12 22 -25 18 -29 -4 -4 1 -4 12 0 18 7 18 6 7 -9 -12 -14 -11 -16 8 -12 18 3
20 2 10 -10 -9 -11 -7 -12 11 -8 15 4 20 3 15 -5 -4 -8 0 -12 11 -13 16 0 16
-1 -2 -9 -18 -8 -17 -9 8 -9 15 -1 27 -6 27 -12 0 -5 -5 -7 -12 -3 -7 5 -8 3
-4 -5 5 -7 10 -10 13 -7 9 8 35 -23 28 -34 -3 -6 0 -7 9 -4 11 4 19 -2 25 -18
5 -13 17 -30 27 -38 18 -14 18 -13 0 8 -11 12 -16 25 -13 29 4 3 7 1 7 -6 0
-7 5 -9 10 -6 6 4 9 3 8 -2 -1 -4 3 -18 10 -29 6 -12 8 -25 4 -30 -4 -5 2 -2
12 6 18 14 19 13 12 -5 -4 -11 -4 -16 0 -13 8 8 35 -17 49 -45 5 -11 17 -22
25 -24 10 -3 9 -1 -2 7 -10 6 -18 15 -18 20 0 6 11 0 25 -12 14 -12 25 -28 25
-35 0 -7 5 -13 10 -13 6 0 10 -10 11 -22 0 -22 1 -22 9 -3 8 18 9 19 9 1 1
-13 6 -16 18 -12 15 6 14 4 -2 -16 -11 -13 -13 -17 -5 -11 17 15 34 17 25 3
-3 -5 0 -10 8 -10 22 0 39 -24 26 -37 -9 -9 -5 -11 13 -9 18 2 25 -2 24 -13
-1 -10 6 -15 17 -15 13 2 15 -1 7 -11 -8 -10 -8 -15 1 -21 8 -5 10 -3 5 7 -4
8 -1 5 8 -5 8 -10 12 -24 9 -30 -4 -6 2 -4 12 4 17 14 18 13 11 -5 -4 -11 -4
-16 0 -13 8 8 39 -21 47 -45 4 -9 18 -22 33 -27 17 -7 24 -15 20 -26 -3 -9 -2
-12 4 -9 10 6 37 -14 36 -27 -1 -3 3 -10 8 -15 5 -5 6 -3 2 5 -4 6 -2 12 3 12
6 0 11 -12 12 -27 0 -25 1 -26 9 -8 8 18 9 18 9 2 1 -11 5 -15 13 -11 8 5 9 0
5 -15 -4 -18 -3 -20 8 -11 12 10 13 8 10 -10 -4 -19 -2 -20 12 -8 15 11 16 11
9 -7 -4 -11 -4 -17 -1 -13 11 10 45 -25 46 -47 0 -20 0 -20 9 0 8 18 9 19 9 1
1 -13 6 -16 18 -12 15 6 14 4 -2 -16 -11 -13 -13 -17 -5 -11 17 15 34 17 25 3
-3 -5 -1 -10 5 -10 6 0 9 -3 7 -7 -3 -5 2 -14 10 -22 13 -12 15 -11 9 10 -3
14 1 10 10 -9 9 -22 20 -32 29 -28 9 3 12 0 9 -8 -4 -10 7 -15 40 -18 25 -2
46 -1 46 2 0 3 434 4 965 2 771 -2 965 0 965 10 0 9 3 9 9 -1 7 -11 13 -7 25
20 9 19 14 26 12 17 -3 -9 1 -19 9 -22 9 -3 12 0 8 10 -3 7 0 14 6 14 6 0 11
5 11 11 0 5 -5 7 -12 3 -7 -4 -8 -3 -4 4 4 7 17 12 29 12 18 0 19 2 7 10 -12
8 -11 10 7 10 12 0 25 5 29 12 4 7 3 8 -4 4 -7 -4 -12 -2 -12 5 0 7 8 9 21 6
12 -3 18 -3 15 1 -4 3 4 12 16 20 13 7 15 11 6 8 -45 -15 -51 -16 -32 -5 12 6
27 21 33 33 7 11 10 14 7 5 -2 -9 2 -16 9 -16 7 0 11 6 8 14 -3 8 2 13 13 13
16 0 17 2 4 10 -12 8 -10 10 9 10 17 0 22 4 17 16 -4 12 -2 15 9 10 9 -3 15 0
15 9 0 7 5 17 12 21 7 5 8 3 3 -6 -5 -9 -4 -11 4 -6 9 6 9 11 -1 24 -12 14
-10 14 12 2 23 -12 24 -12 11 3 -12 15 -11 17 7 17 15 0 20 5 16 15 -4 8 -1
15 5 15 17 0 51 33 51 50 0 13 1 13 10 0 8 -13 10 -12 10 4 0 11 5 16 13 13 8
-3 14 1 14 8 0 7 -7 11 -16 8 -9 -2 -6 2 7 9 12 8 19 18 15 23 -4 4 -3 5 4 1
7 -4 10 -14 7 -24 -5 -15 -4 -15 6 1 6 10 9 25 6 32 -3 8 0 14 7 12 7 -1 11 4
9 11 -1 8 2 11 7 7 6 -3 8 -13 5 -23 -5 -14 -4 -15 5 -2 6 8 11 24 11 35 0 17
2 18 11 5 9 -12 10 -11 6 6 -3 17 0 20 13 17 10 -3 20 2 24 13 6 15 4 15 -11
3 -16 -11 -16 -11 -5 1 7 8 20 15 30 15 9 0 21 10 27 23 5 12 15 20 21 18 8
-3 10 4 7 17 -4 18 -3 19 6 7 9 -13 11 -12 11 4 0 11 5 16 13 13 8 -3 14 1 14
8 0 7 -7 11 -16 8 -14 -4 -14 -3 -1 5 10 8 18 8 27 0 11 -8 12 -7 6 7 -5 14
-3 17 9 12 12 -4 15 0 11 16 -4 18 -3 19 6 7 9 -13 11 -12 11 4 0 11 5 16 13
13 8 -3 14 1 14 8 0 7 -7 11 -16 8 -9 -2 -6 2 7 9 12 8 19 18 15 23 -4 4 -3 5
4 1 7 -4 10 -14 7 -24 -5 -15 -4 -15 6 1 6 10 9 25 6 32 -3 8 0 14 7 12 7 -1
11 4 9 11 -1 8 2 11 7 7 6 -3 8 -13 5 -23 -5 -14 -4 -15 5 -2 6 8 11 24 11 35
0 17 2 18 11 5 9 -12 10 -11 6 6 -3 17 0 20 13 17 10 -3 20 2 24 13 6 15 4 15
-11 3 -16 -11 -16 -11 -5 1 7 8 20 15 30 15 9 0 21 10 27 23 5 12 15 20 21 18
8 -3 10 4 7 17 -4 18 -3 19 6 7 9 -13 11 -12 11 4 0 12 5 16 15 12 8 -3 14 0
12 7 -1 7 3 11 10 10 8 -2 10 4 6 14 -5 12 -2 15 10 10 10 -4 16 -2 14 6 -1 7
4 11 11 9 10 -2 10 2 2 19 -10 19 -10 20 8 10 18 -9 19 -8 15 12 -4 18 -3 19
6 7 9 -13 11 -11 11 7 0 12 5 25 12 29 7 5 8 3 3 -5 -5 -9 -1 -9 14 1 25 16
28 30 4 22 -14 -5 -15 -4 -4 4 8 6 20 8 28 5 9 -4 11 0 7 13 -4 11 -4 16 1 12
9 -9 35 16 35 34 0 10 3 9 10 -2 8 -13 10 -12 11 5 1 11 1 23 0 27 0 4 6 5 15
1 11 -4 14 -1 12 10 -2 9 2 16 7 16 6 0 9 -8 7 -17 -2 -15 -1 -15 9 1 6 10 8
25 5 32 -3 8 0 14 7 12 7 -1 11 4 9 11 -1 8 2 11 7 7 6 -3 8 -13 5 -23 -5 -14
-4 -15 5 -2 6 8 11 24 11 35 0 17 2 18 11 5 9 -12 10 -11 6 6 -4 17 -1 20 14
17 11 -3 19 0 19 6 0 7 -5 9 -12 5 -7 -4 -8 -3 -4 4 4 7 17 12 29 12 18 0 19
2 7 10 -12 8 -11 10 7 10 12 0 25 5 29 12 4 7 3 8 -4 4 -7 -4 -12 -2 -12 5 0
7 8 9 21 6 12 -3 18 -3 15 1 -4 3 4 12 16 20 13 7 15 11 6 8 -45 -15 -51 -16
-32 -5 12 6 27 21 33 33 7 11 10 14 7 5 -2 -9 2 -16 9 -16 7 0 11 6 8 14 -3 8
2 13 13 13 16 0 17 2 4 10 -12 8 -10 10 9 10 17 0 22 4 17 16 -4 12 -2 15 9
10 9 -3 15 0 15 9 0 7 5 17 12 21 7 5 8 3 3 -6 -5 -9 -4 -11 4 -6 9 6 9 11 -1
24 -12 14 -10 14 12 2 23 -12 24 -12 11 3 -12 15 -11 17 7 17 15 0 20 5 16 15
-4 8 -1 15 5 15 17 0 51 33 51 50 0 13 1 13 10 0 8 -13 10 -12 10 4 0 11 5 16
13 13 8 -3 14 1 14 8 0 7 -7 11 -16 8 -9 -2 -6 2 7 9 12 8 19 18 15 23 -4 4
-3 5 4 1 7 -4 10 -14 7 -24 -5 -15 -4 -15 6 1 6 10 9 25 6 32 -3 8 0 14 7 12
7 -1 11 4 9 11 -1 8 2 11 7 7 6 -3 8 -13 5 -23 -5 -14 -4 -15 5 -2 6 8 11 24
11 35 0 17 2 18 11 5 9 -12 10 -11 6 6 -3 17 0 20 13 17 10 -3 20 2 24 13 6
15 4 15 -11 3 -16 -11 -16 -11 -5 1 7 8 20 15 30 15 9 0 21 10 27 23 5 12 15
20 21 18 8 -3 10 4 7 17 -4 18 -3 19 6 7 9 -13 11 -12 11 4 0 12 5 16 15 12 8
-3 14 0 12 7 -1 7 3 11 10 10 7 -2 10 4 7 12 -3 7 0 22 6 32 10 16 11 16 6 1
-3 -10 0 -20 6 -24 7 -4 8 -3 4 4 -4 7 -2 12 4 12 6 0 8 5 4 12 -5 8 -2 9 11
4 14 -5 15 -4 7 7 -8 9 -8 17 0 27 8 13 9 13 5 -1 -3 -9 1 -16 8 -16 7 0 11 6
8 14 -3 8 2 13 13 13 16 0 17 2 4 11 -12 9 -11 10 7 6 13 -3 20 -1 17 7 -2 6
6 16 18 21 13 6 23 17 23 25 1 8 6 24 13 35 12 19 13 19 6 -4 -4 -16 -3 -21 5
-17 6 4 11 14 11 22 0 8 8 14 18 14 14 0 15 2 2 10 -12 8 -11 10 7 10 12 0 25
5 29 12 4 7 3 8 -4 4 -7 -4 -12 -2 -12 5 0 7 8 9 21 6 12 -3 18 -3 15 1 -4 3
4 12 16 20 13 7 15 11 6 8 -45 -15 -51 -16 -32 -5 12 6 27 21 33 33 7 11 10
14 7 5 -2 -9 2 -16 9 -16 7 0 11 6 8 14 -3 8 2 13 13 13 16 0 17 2 4 10 -12 8
-12 10 5 10 11 0 27 5 35 11 13 10 13 10 -1 6 -9 -3 -16 1 -16 8 0 8 8 12 20
10 16 -4 17 -2 5 12 -7 9 -8 14 -2 10 13 -7 27 17 16 27 -9 9 -10 46 -1 46 9
0 7 20 -4 37 -4 6 -3 14 3 18 6 4 7 12 3 18 -9 15 -11 47 -3 47 9 0 6 32 -4
48 -4 7 -2 12 4 12 6 0 8 5 4 12 -11 17 -12 48 -3 48 9 0 7 20 -4 37 -4 6 -3
14 3 18 6 4 7 12 3 18 -9 15 -11 47 -3 47 9 0 6 32 -4 48 -4 7 -2 12 4 12 6 0
8 5 4 12 -11 17 -12 48 -3 48 9 0 7 20 -4 37 -4 6 -3 14 3 18 6 4 7 12 3 18
-9 15 -11 47 -3 47 9 0 6 32 -4 48 -4 7 -2 12 4 12 6 0 8 5 4 12 -11 17 -12
48 -3 48 9 0 7 20 -4 37 -4 6 -3 14 3 18 6 4 7 12 3 18 -9 15 -11 47 -3 47 9
0 6 32 -4 48 -4 7 -2 12 4 12 6 0 8 5 4 12 -11 17 -12 48 -3 48 9 0 7 20 -4
37 -4 6 -3 14 3 18 6 4 7 12 3 18 -9 15 -11 47 -3 47 9 0 6 32 -4 48 -4 7 -2
12 4 12 6 0 8 5 4 12 -11 17 -12 48 -3 48 9 0 7 20 -4 37 -4 6 -3 14 3 18 6 4
7 12 3 18 -9 15 -11 47 -3 47 9 0 6 32 -4 48 -4 7 -2 12 4 12 6 0 8 5 4 12
-11 18 -12 48 -2 48 5 0 4 9 -2 20 -6 11 -7 20 -2 20 10 0 9 30 -2 48 -4 7 -2
12 4 12 6 0 8 5 4 12 -11 17 -12 48 -3 48 9 0 7 20 -4 37 -4 6 -3 14 3 18 6 4
7 12 3 18 -9 15 -11 47 -3 47 9 0 6 32 -4 48 -4 7 -2 12 4 12 6 0 8 5 4 12
-11 17 -12 48 -3 48 9 0 6 26 -4 36 -4 4 -2 13 4 20 7 8 7 14 -1 19 -5 3 -10
18 -10 33 0 22 -2 24 -11 12 -9 -12 -10 -10 -6 8 5 20 3 22 -11 10 -12 -10
-14 -10 -8 0 5 8 1 12 -11 12 -15 0 -16 2 -3 10 12 8 10 10 -10 10 -20 0 -22
2 -10 10 12 8 10 10 -10 10 -20 0 -22 2 -10 11 12 9 10 10 -8 6 -17 -4 -21 -2
-13 7 14 17 -72 99 -87 84 -8 -8 -9 -4 -6 13 5 19 4 21 -5 9 -9 -13 -11 -12
-11 6 0 20 -47 70 -57 61 -3 -3 7 -13 21 -22 14 -10 26 -22 26 -28 0 -16 -72
64 -93 102 -14 27 -20 31 -31 22 -12 -10 -14 -8 -9 11 4 18 3 20 -6 8 -9 -13
-11 -12 -11 6 0 20 -47 70 -57 61 -3 -3 7 -13 21 -22 14 -10 26 -22 26 -28 0
-15 -72 64 -92 101 -12 22 -24 32 -40 32 -19 0 -20 2 -8 10 12 8 10 10 -10 10
-20 0 -22 2 -10 10 12 8 10 10 -10 10 -20 0 -22 2 -10 11 12 9 10 10 -9 5 -18
-3 -21 -2 -13 6 8 8 3 20 -21 45 -18 18 -36 33 -40 33 -5 0 9 -16 30 -36 21
-20 29 -32 18 -26 -11 6 -33 26 -50 43 -16 18 -24 29 -17 25 6 -4 12 -2 12 3
0 6 -10 11 -22 11 -19 0 -20 2 -8 10 12 8 10 10 -10 10 -20 0 -22 2 -10 10 12
8 10 10 -10 10 -20 0 -22 2 -10 11 12 9 10 10 -8 6 -17 -4 -21 -2 -13 6 7 9
-9 30 -55 75 -35 35 -64 59 -64 54 0 -5 8 -16 18 -23 15 -13 15 -13 -3 -3 -11
6 -22 20 -24 30 -5 28 -21 44 -45 44 -17 0 -18 2 -6 10 12 8 11 10 -7 10 -15
0 -23 6 -23 18 0 9 -5 24 -11 32 -8 12 -9 9 -4 -9 6 -21 5 -22 -8 -10 -8 8
-13 17 -10 22 2 4 -4 7 -14 7 -15 0 -16 2 -3 10 12 8 10 10 -10 10 -20 0 -22
2 -10 10 12 8 10 10 -10 10 -20 0 -22 2 -10 11 12 9 10 10 -8 6 -18 -4 -21 -2
-13 7 8 9 4 19 -14 34 -14 12 -25 18 -25 13 0 -5 10 -16 23 -25 l22 -17 -23
11 c-13 6 -26 19 -28 28 -3 9 -10 26 -15 37 -8 18 -8 17 -3 -3 6 -23 5 -23
-16 -5 -12 10 -26 27 -31 38 -8 15 -4 13 11 -5 21 -24 18 -9 -3 18 -7 9 -13 9
-23 2 -10 -9 -11 -6 -7 12 4 18 3 20 -6 8 -9 -12 -11 -11 -11 9 0 19 -3 21
-14 12 -12 -10 -14 -8 -9 11 4 18 3 20 -6 8 -9 -13 -11 -12 -11 5 0 11 -20 39
-45 63 -25 24 -45 39 -45 34 0 -5 10 -17 23 -27 22 -17 22 -17 -3 -2 -14 8
-27 23 -29 33 -5 28 -21 44 -45 44 -17 0 -18 2 -6 10 12 8 11 10 -7 10 -13 0
-23 5 -23 11 0 5 6 7 13 3 6 -4 1 5 -13 18 -17 17 -29 22 -37 16 -8 -7 -10 -3
-6 14 4 18 3 20 -6 8 -9 -13 -11 -12 -11 6 0 20 -47 70 -57 61 -3 -3 7 -13 21
-22 14 -10 26 -22 26 -28 0 -16 -72 64 -93 102 -14 27 -20 31 -31 22 -12 -10
-14 -8 -9 11 4 18 3 20 -6 8 -9 -13 -11 -12 -11 6 0 20 -47 70 -57 61 -3 -3 7
-13 21 -22 14 -10 26 -22 26 -28 0 -15 -72 64 -92 101 -12 22 -24 32 -40 32
-19 0 -20 2 -8 10 12 8 10 10 -10 10 -20 0 -22 2 -10 10 12 8 10 10 -10 10
-20 0 -22 2 -10 11 12 9 10 10 -8 6 -17 -4 -21 -2 -13 7 14 17 -72 99 -87 84
-8 -8 -9 -4 -6 13 5 19 4 21 -5 9 -9 -13 -11 -12 -11 6 0 20 -47 70 -57 61 -3
-3 7 -13 21 -22 14 -10 26 -22 26 -28 0 -16 -72 65 -99 111 -17 28 -27 38 -32
30 -10 -16 -69 41 -62 59 3 7 0 13 -6 13 -6 0 -11 -5 -11 -12 0 -6 -3 -8 -6
-5 -4 4 -2 13 5 20 9 12 6 14 -14 11 -23 -2 -24 0 -13 14 11 14 10 15 -6 9
-16 -6 -17 -5 -6 8 11 13 10 14 -5 8 -15 -5 -17 -3 -12 12 6 15 5 16 -7 6 -12
-10 -18 -8 -31 13 -9 14 -14 29 -11 34 3 5 -1 9 -8 9 -8 0 -12 -7 -10 -16 3
-9 -1 -6 -7 6 l-12 23 -998 2 c-550 2 -999 0 -999 -4 0 -5 -5 -8 -11 -8 -5 0
-7 5 -4 10 3 6 4 10 1 10 -3 0 -8 -4 -11 -10z m-130 -150 c-3 -5 -12 -10 -18
-10 -7 0 -6 4 3 10 19 12 23 12 15 0z m2415 -124 c-1 -6 -8 2 -16 17 -8 16
-20 25 -26 21 -7 -5 -8 -2 -3 6 6 10 12 8 27 -9 10 -13 18 -28 18 -35z m177
-162 c21 -20 29 -32 18 -26 -21 12 -71 62 -62 62 3 0 23 -16 44 -36z m133
-135 c7 -11 9 -23 6 -27 -3 -3 -6 0 -6 6 0 6 -7 18 -16 26 -8 9 -11 16 -5 16
6 0 15 -9 21 -21z m170 -183 c0 -12 -5 -7 -19 24 -11 24 -11 24 3 6 9 -11 16
-24 16 -30z m155 -144 c-3 -3 -11 0 -18 7 -9 10 -8 11 6 5 10 -3 15 -9 12 -12z
m70 -63 c11 -16 1 -19 -13 -3 -7 8 -8 14 -3 14 5 0 13 -5 16 -11z m86 -89 c10
-6 19 -16 19 -23 0 -8 -3 -9 -8 -1 -4 6 -16 16 -27 22 -25 14 -11 16 16 2z
m394 -391 c11 -16 1 -19 -13 -3 -7 8 -8 14 -3 14 5 0 13 -5 16 -11z m112 -115
c22 -22 29 -32 16 -25 -12 6 -26 17 -30 25 -4 7 -17 18 -28 24 -11 6 -15 12
-8 12 6 0 29 -16 50 -36z m293 -295 c7 -11 9 -23 6 -27 -3 -3 -6 0 -6 6 0 6
-7 18 -16 26 -8 9 -11 16 -5 16 6 0 15 -9 21 -21z m170 -183 c0 -12 -5 -7 -19
24 -11 24 -11 24 3 6 9 -11 16 -24 16 -30z m177 -162 c21 -20 29 -32 18 -26
-21 12 -71 62 -62 62 3 0 23 -16 44 -36z m-87 -2419 c0 -12 -19 -12 -23 0 -4
9 -1 12 9 8 7 -3 14 -7 14 -8z m-165 -155 c-3 -5 -12 -10 -18 -10 -7 0 -6 4 3
10 19 12 23 12 15 0z m-75 -84 c0 -3 -4 -8 -10 -11 -5 -3 -10 -1 -10 4 0 6 5
11 10 11 6 0 10 -2 10 -4z m-5515 -235 c-6 -5 -25 10 -25 20 0 5 6 4 14 -3 8
-7 12 -15 11 -17z m4670 -601 c-3 -5 -12 -10 -18 -10 -7 0 -6 4 3 10 19 12 23
12 15 0z m-40 -40 c-3 -5 -12 -10 -18 -10 -7 0 -6 4 3 10 19 12 23 12 15 0z
m-75 -84 c0 -3 -4 -8 -10 -11 -5 -3 -10 -1 -10 4 0 6 5 11 10 11 6 0 10 -2 10
-4z m-320 -320 c0 -3 -4 -8 -10 -11 -5 -3 -10 -1 -10 4 0 6 5 11 10 11 6 0 10
-2 10 -4z m-2955 -235 c-6 -5 -25 10 -25 20 0 5 6 4 14 -3 8 -7 12 -15 11 -17z"/>
<path d="M6060 8300 c6 -11 13 -20 16 -20 2 0 0 9 -6 20 -6 11 -13 20 -16 20
-2 0 0 -9 6 -20z"/>
<path d="M6180 8179 c8 -8 21 -21 29 -29 12 -12 11 -10 0 9 -9 14 -22 27 -30
29 -11 3 -11 2 1 -9z"/>
<path d="M6290 8085 c0 -5 5 -17 10 -25 5 -8 10 -10 10 -5 0 6 -5 17 -10 25
-5 8 -10 11 -10 5z"/>
<path d="M3676 8055 c-9 -26 -7 -32 5 -12 6 10 9 21 6 23 -2 3 -7 -2 -11 -11z"/>
<path d="M3436 7815 c-9 -26 -7 -32 5 -12 6 10 9 21 6 23 -2 3 -7 -2 -11 -11z"/>
<path d="M6610 7765 c0 -5 5 -17 10 -25 5 -8 10 -10 10 -5 0 6 -5 17 -10 25
-5 8 -10 11 -10 5z"/>
<path d="M6770 7605 c0 -5 5 -17 10 -25 5 -8 10 -10 10 -5 0 6 -5 17 -10 25
-5 8 -10 11 -10 5z"/>
<path d="M3196 7575 c-9 -26 -7 -32 5 -12 6 10 9 21 6 23 -2 3 -7 -2 -11 -11z"/>
<path d="M2905 7280 c-3 -6 1 -7 9 -4 18 7 21 14 7 14 -6 0 -13 -4 -16 -10z"/>
<path d="M2636 7015 c-9 -26 -7 -32 5 -12 6 10 9 21 6 23 -2 3 -7 -2 -11 -11z"/>
<path d="M2396 6775 c-9 -26 -7 -32 5 -12 6 10 9 21 6 23 -2 3 -7 -2 -11 -11z"/>
<path d="M2156 6535 c-9 -26 -7 -32 5 -12 6 10 9 21 6 23 -2 3 -7 -2 -11 -11z"/>
<path d="M7890 6485 c0 -5 5 -17 10 -25 5 -8 10 -10 10 -5 0 6 -5 17 -10 25
-5 8 -10 11 -10 5z"/>
<path d="M8050 6325 c0 -5 5 -17 10 -25 5 -8 10 -10 10 -5 0 6 -5 17 -10 25
-5 8 -10 11 -10 5z"/>
<path d="M1916 6295 c-9 -26 -7 -32 5 -12 6 10 9 21 6 23 -2 3 -7 -2 -11 -11z"/>
<path d="M1756 6135 c-9 -26 -7 -32 5 -12 6 10 9 21 6 23 -2 3 -7 -2 -11 -11z"/>
<path d="M1766 3847 c3 -10 9 -15 12 -12 3 3 0 11 -7 18 -10 9 -11 8 -5 -6z"/>
<path d="M2000 3607 c0 -2 14 -16 30 -30 17 -15 30 -23 30 -19 0 5 -13 18 -30
30 -16 13 -30 21 -30 19z"/>
<path d="M2150 3456 c0 -2 7 -7 16 -10 8 -3 12 -2 9 4 -6 10 -25 14 -25 6z"/>
<path d="M2726 2887 c3 -10 9 -15 12 -12 3 3 0 11 -7 18 -10 9 -11 8 -5 -6z"/>
<path d="M2844 2764 c9 -8 16 -20 16 -26 0 -6 3 -9 6 -6 8 9 -14 48 -27 48 -6
0 -3 -7 5 -16z"/>
<path d="M2886 2727 c3 -10 9 -15 12 -12 3 3 0 11 -7 18 -10 9 -11 8 -5 -6z"/>
<path d="M3430 2176 c0 -2 7 -7 16 -10 8 -3 12 -2 9 4 -6 10 -25 14 -25 6z"/>
</g>
</svg>
